# Blender 4.3.2
# www.blender.org
mtllib low_buildingF_CyPk.mtl
o low_buildingF
v 0.200000 0.000000 0.200000
v -0.200000 0.000000 0.200000
v 0.200000 0.100000 0.200000
v -0.200000 0.100000 0.200000
v 0.200000 0.100000 -0.200000
v 0.200000 -0.000000 -0.200000
v 0.150000 0.200000 0.200000
v 0.150000 0.200000 0.250000
v -0.150000 0.200000 0.200000
v -0.150000 0.200000 0.250000
v -0.200000 -0.000000 -0.200000
v -0.200000 0.100000 -0.200000
v 0.250000 0.100000 -0.250000
v 0.250000 0.100000 0.250000
v -0.250000 0.100000 0.250000
v -0.250000 0.100000 -0.250000
v -0.200000 0.200000 0.150000
v -0.200000 0.900000 0.150000
v -0.250000 0.200000 0.150000
v -0.250000 0.900000 0.150000
v 0.250000 0.200000 -0.150000
v 0.250000 0.200000 0.150000
v 0.200000 0.200000 -0.150000
v 0.200000 0.200000 0.150000
v -0.200000 0.200000 -0.150000
v -0.250000 0.200000 -0.150000
v -0.200000 0.900000 -0.150000
v -0.250000 0.900000 -0.150000
v 0.150000 0.200000 -0.200000
v -0.150000 0.200000 -0.200000
v 0.150000 0.200000 -0.250000
v -0.150000 0.200000 -0.250000
v -0.150000 0.900000 -0.250000
v -0.150000 0.900000 -0.200000
v 0.200000 1.000000 -0.200000
v 0.200000 1.000000 0.200000
v -0.200000 1.000000 -0.200000
v -0.200000 1.000000 0.200000
v -0.200000 1.500000 -0.200000
v -0.200000 1.500000 0.200000
v 0.200000 1.500000 0.200000
v 0.200000 1.500000 -0.200000
v -0.150000 0.900000 0.200000
v -0.150000 0.900000 0.250000
v 0.150000 0.900000 0.200000
v 0.150000 0.900000 0.250000
v 0.250000 1.000000 0.250000
v -0.250000 1.000000 0.250000
v -0.250000 1.000000 -0.250000
v 0.150000 0.900000 -0.250000
v 0.250000 1.000000 -0.250000
v 0.150000 0.900000 -0.200000
v 0.200000 0.900000 -0.150000
v 0.250000 0.900000 -0.150000
v 0.250000 0.900000 0.150000
v 0.200000 0.900000 0.150000
v 0.050000 1.775000 0.053600
v 0.012500 1.775000 -0.008900
v 0.050000 1.775000 -0.046400
v -0.050000 1.775000 -0.046400
v -0.012500 1.775000 -0.008900
v -0.012500 1.775000 0.016100
v -0.050000 1.775000 0.053600
v 0.012500 1.775000 0.016100
v -0.012500 1.975000 -0.008900
v 0.012500 1.975000 -0.008900
v -0.050000 1.675000 -0.046400
v -0.050000 1.675000 0.053600
v 0.012500 1.975000 0.016100
v -0.012500 1.975000 0.016100
v 0.050000 1.675000 -0.046400
v 0.050000 1.675000 0.053600
v 0.100000 1.675000 -0.100000
v -0.100000 1.675000 -0.100000
v 0.100000 1.700000 -0.100000
v -0.100000 1.700000 -0.100000
v -0.100000 1.675000 0.100000
v 0.100000 1.675000 0.100000
v -0.100000 1.700000 0.100000
v 0.100000 1.700000 0.100000
v -0.150000 1.500000 -0.150000
v -0.150000 1.700000 -0.150000
v -0.150000 1.500000 0.150000
v -0.150000 1.700000 0.150000
v 0.150000 1.500000 0.150000
v 0.150000 1.700000 0.150000
v 0.150000 1.700000 -0.150000
v 0.150000 1.500000 -0.150000
vn -0.0000 -0.0000 1.0000
vn 1.0000 -0.0000 -0.0000
vn -0.0000 1.0000 -0.0000
vn -0.0000 -1.0000 -0.0000
vn -1.0000 -0.0000 -0.0000
vn -0.0000 -0.0000 -1.0000
vt 0.000000 0.000000
vt -5.905512 35.433071
vt 5.905512 7.874016
vt 5.905512 35.433071
vt 7.874016 7.874016
vt 5.905512 5.905512
vt 7.874016 -7.874016
vt -1.968504 2.110235
vt 1.968504 -1.826773
vt 1.968504 2.110235
vt 3.937008 3.937008
vt 3.937008 -3.937008
vt -5.905512 5.905512
vt 5.905512 -5.905512
vt -5.905512 7.874016
vt -7.874016 -7.874016
vt -5.905512 -5.905512
vt -7.874016 7.874016
vt -1.968504 -1.826773
vt -3.937008 -3.937008
vt -3.937008 3.937008
s 1
usemtl _defaultMat.012
f 3/1/1 2/1/1 1/1/1
f 2/1/1 3/1/1 4/1/1
f 3/1/2 6/1/2 5/1/2
f 6/1/2 3/1/2 1/1/2
f 9/1/3 8/1/3 7/1/3
f 8/1/3 9/1/3 10/1/3
f 2/1/4 6/1/4 1/1/4
f 6/1/4 2/1/4 11/1/4
f 2/1/5 12/1/5 11/1/5
f 12/1/5 2/1/5 4/1/5
f 12/1/6 6/1/6 11/1/6
f 6/1/6 12/1/6 5/1/6
f 14/1/4 3/1/4 13/1/4
f 3/1/4 14/1/4 15/1/4
f 3/1/4 15/1/4 4/1/4
f 4/1/4 15/1/4 12/1/4
f 5/1/4 13/1/4 3/1/4
f 13/1/4 5/1/4 16/1/4
f 16/1/4 5/1/4 12/1/4
f 16/1/4 12/1/4 15/1/4
f 19/1/6 18/1/6 17/1/6
f 18/1/6 19/1/6 20/1/6
f 23/1/3 22/1/3 21/1/3
f 22/1/3 23/1/3 24/1/3
f 27/1/1 26/1/1 25/1/1
f 26/1/1 27/1/1 28/1/1
f 25/2/3 19/3/3 17/4/3
f 19/2/3 25/3/3 26/4/3
f 31/2/3 30/3/3 29/4/3
f 30/2/3 31/3/3 32/4/3
f 34/2/2 32/3/2 33/4/2
f 32/2/2 34/3/2 30/4/2
f 37/2/3 36/3/3 35/4/3
f 36/2/3 37/3/3 38/4/3
f 38/2/5 39/3/5 37/4/5
f 39/2/5 38/3/5 40/4/5
f 41/2/1 38/3/1 36/4/1
f 38/2/1 41/3/1 40/4/1
f 41/2/2 35/3/2 42/4/2
f 35/2/2 41/3/2 36/4/2
f 39/5/6 35/6/6 37/7/6
f 35/5/6 39/6/6 42/7/6
f 43/5/2 10/6/2 9/7/2
f 10/5/2 43/6/2 44/7/2
f 20/5/4 27/6/4 18/7/4
f 27/5/4 20/6/4 28/7/4
f 8/5/5 45/6/5 7/7/5
f 45/5/5 8/6/5 46/7/5
f 14/5/1 8/6/1 15/7/1
f 8/5/1 14/6/1 47/7/1
f 8/5/1 47/6/1 46/7/1
f 46/5/1 47/6/1 44/7/1
f 15/5/1 10/6/1 48/7/1
f 10/5/1 15/6/1 8/7/1
f 48/5/1 10/6/1 44/7/1
f 48/5/1 44/6/1 47/7/1
f 16/5/6 32/6/6 13/7/6
f 32/5/6 16/6/6 49/7/6
f 32/5/6 49/6/6 33/7/6
f 33/5/6 49/6/6 50/7/6
f 13/5/6 31/6/6 51/7/6
f 31/5/6 13/6/6 32/7/6
f 51/5/6 31/6/6 50/7/6
f 51/5/6 50/6/6 49/7/6
f 16/5/5 26/6/5 49/7/5
f 26/5/5 16/6/5 15/7/5
f 26/5/5 15/6/5 19/7/5
f 19/5/5 15/6/5 20/7/5
f 49/5/5 28/6/5 48/7/5
f 28/5/5 49/6/5 26/7/5
f 48/5/5 28/6/5 20/7/5
f 48/5/5 20/6/5 15/7/5
f 52/5/4 33/6/4 50/7/4
f 33/5/4 52/6/4 34/7/4
f 21/5/1 53/6/1 23/7/1
f 53/5/1 21/6/1 54/7/1
f 51/5/3 35/6/3 47/7/3
f 35/5/3 51/6/3 49/7/3
f 35/5/3 49/6/3 37/7/3
f 37/5/3 49/6/3 38/7/3
f 47/5/3 36/6/3 48/7/3
f 36/5/3 47/6/3 35/7/3
f 48/5/3 36/6/3 38/7/3
f 48/5/3 38/6/3 49/7/3
f 31/5/5 52/6/5 50/7/5
f 52/5/5 31/6/5 29/7/5
f 55/5/4 53/6/4 54/7/4
f 53/5/4 55/6/4 56/7/4
f 51/5/2 54/6/2 21/7/2
f 54/5/2 51/6/2 47/7/2
f 54/5/2 47/6/2 55/7/2
f 55/5/2 47/6/2 14/7/2
f 13/5/2 21/6/2 14/7/2
f 21/5/2 13/6/2 51/7/2
f 14/5/2 21/6/2 22/7/2
f 14/5/2 22/6/2 55/7/2
f 44/5/4 45/6/4 46/7/4
f 45/5/4 44/6/4 43/7/4
f 56/5/6 22/6/6 24/7/6
f 22/5/6 56/6/6 55/7/6
f 59/8/3 58/9/3 57/10/3
f 58/8/3 59/9/3 60/10/3
f 58/8/3 60/9/3 61/10/3
f 61/8/3 60/9/3 62/10/3
f 57/8/3 64/9/3 63/10/3
f 64/8/3 57/9/3 58/10/3
f 63/8/3 64/9/3 62/10/3
f 63/8/3 62/9/3 60/10/3
f 65/8/6 58/9/6 61/10/6
f 58/8/6 65/9/6 66/10/6
f 68/8/5 60/9/5 67/10/5
f 60/8/5 68/9/5 63/10/5
f 65/8/3 69/9/3 66/10/3
f 69/8/3 65/9/3 70/10/3
f 60/8/6 71/9/6 67/10/6
f 71/8/6 60/9/6 59/10/6
f 57/8/1 68/9/1 72/10/1
f 68/8/1 57/9/1 63/10/1
f 62/8/5 65/9/5 61/10/5
f 65/8/5 62/9/5 70/10/5
f 57/8/2 71/9/2 59/10/2
f 71/8/2 57/9/2 72/10/2
f 69/8/2 58/9/2 66/10/2
f 58/8/2 69/9/2 64/10/2
f 69/8/1 62/9/1 64/10/1
f 62/8/1 69/9/1 70/10/1
f 75/8/1 74/9/1 73/10/1
f 74/8/1 75/9/1 76/10/1
f 79/11/6 78/10/6 77/12/6
f 78/11/6 79/10/6 80/12/6
f 83/11/5 82/10/5 81/12/5
f 82/11/5 83/10/5 84/12/5
f 79/13/2 74/14/2 76/6/2
f 74/13/2 79/14/2 77/6/2
f 86/13/1 83/14/1 85/6/1
f 83/13/1 86/14/1 84/6/1
f 87/13/3 75/14/3 86/6/3
f 75/13/3 87/14/3 82/6/3
f 75/13/3 82/14/3 76/6/3
f 76/13/3 82/14/3 79/6/3
f 86/13/3 80/14/3 84/6/3
f 80/13/3 86/14/3 75/6/3
f 84/13/3 80/14/3 79/6/3
f 84/13/3 79/14/3 82/6/3
f 82/13/6 88/14/6 81/6/6
f 88/13/6 82/14/6 87/6/6
f 78/13/5 75/14/5 73/6/5
f 75/13/5 78/14/5 80/6/5
f 86/13/2 88/14/2 87/6/2
f 88/13/2 86/14/2 85/6/2
usemtl border.012
f 17/3/5 27/2/5 25/15/5
f 27/2/5 17/3/5 18/4/5
f 42/16/3 88/17/3 41/18/3
f 88/17/3 42/16/3 39/7/3
f 88/17/3 39/7/3 81/14/3
f 81/14/3 39/7/3 83/6/3
f 85/13/3 41/18/3 88/17/3
f 81/14/3 85/13/3 88/17/3
f 85/13/3 81/14/3 83/6/3
f 41/18/3 85/13/3 40/5/3
f 40/5/3 85/13/3 83/6/3
f 40/5/3 83/6/3 39/7/3
f 53/4/2 24/15/2 23/3/2
f 24/15/2 53/4/2 56/2/2
f 34/4/6 29/15/6 30/3/6
f 29/15/6 34/4/6 52/2/6
f 45/4/1 9/15/1 7/3/1
f 9/15/1 45/4/1 43/2/1
f 67/9/3 72/8/3 71/19/3
f 72/8/3 67/9/3 68/10/3
f 71/19/3 74/12/3 67/9/3
f 67/9/3 74/12/3 68/10/3
f 71/19/3 73/20/3 74/12/3
f 73/20/3 71/19/3 78/21/3
f 72/8/3 78/21/3 71/19/3
f 78/21/3 72/8/3 77/11/3
f 77/11/3 72/8/3 68/10/3
f 77/11/3 68/10/3 74/12/3
