# Blender 4.3.2
# www.blender.org
mtllib low_buildingH_CyPk.mtl
o low_buildingH
v -0.250000 -0.000000 -0.250000
v -0.250000 0.500000 -0.250000
v -0.250000 0.000000 0.250000
v -0.250000 0.500000 0.250000
v 0.100000 0.650000 -0.100000
v 0.100000 0.700000 -0.100000
v 0.100000 0.650000 0.100000
v 0.100000 0.700000 0.100000
v 0.250000 0.500000 -0.250000
v 0.250000 -0.000000 -0.250000
v 0.250000 0.500000 0.250000
v 0.250000 0.000000 0.250000
v -0.100000 0.650000 -0.100000
v -0.100000 0.700000 -0.100000
v -0.100000 0.650000 0.100000
v -0.100000 0.700000 0.100000
v 0.200000 0.500000 0.200000
v -0.200000 0.500000 0.200000
v 0.200000 0.650000 0.200000
v -0.200000 0.650000 0.200000
v -0.200000 0.500000 -0.200000
v -0.200000 0.650000 -0.200000
v 0.200000 0.650000 -0.200000
v 0.150000 0.700000 -0.150000
v 0.150000 0.700000 0.150000
v -0.150000 0.700000 -0.150000
v -0.150000 0.700000 0.150000
v 0.200000 0.500000 -0.200000
vn -1.0000 -0.0000 -0.0000
vn 1.0000 -0.0000 -0.0000
vn -0.0000 -0.0000 1.0000
vn -0.0000 -0.0000 -1.0000
vn -0.0000 -1.0000 -0.0000
vn 0.7071 0.7071 -0.0000
vn -0.0000 0.7071 -0.7071
vn -0.7071 0.7071 -0.0000
vn -0.0000 1.0000 -0.0000
vn -0.0000 0.7071 0.7071
vt 0.000000 0.000000
vt 9.842520 9.842520
vt 7.874016 7.874016
vt 9.842520 -9.842520
vt -3.937008 3.937008
vt 3.937008 -3.937008
vt 3.937008 3.937008
vt -9.842520 -9.842520
vt -7.874016 -7.874016
vt -9.842520 9.842520
vt 7.874016 -7.874016
vt -7.874016 7.874016
vt -3.937008 -3.937008
s 1
usemtl _defaultMat.002
f 3/1/1 2/1/1 1/1/1
f 2/1/1 3/1/1 4/1/1
f 7/1/1 6/1/1 5/1/1
f 6/1/1 7/1/1 8/1/1
f 11/1/2 10/1/2 9/1/2
f 10/1/2 11/1/2 12/1/2
f 6/1/3 13/1/3 5/1/3
f 13/1/3 6/1/3 14/1/3
f 16/1/4 7/1/4 15/1/4
f 7/1/4 16/1/4 8/1/4
f 3/1/5 10/1/5 12/1/5
f 10/1/5 3/1/5 1/1/5
f 19/1/3 18/1/3 17/1/3
f 18/1/3 19/1/3 20/1/3
f 11/1/3 3/1/3 12/1/3
f 3/1/3 11/1/3 4/1/3
f 18/1/1 22/1/1 21/1/1
f 22/1/1 18/1/1 20/1/1
f 24/1/6 19/1/6 23/1/6
f 19/1/6 24/1/6 25/1/6
f 26/1/7 23/1/7 22/1/7
f 23/1/7 26/1/7 24/1/7
f 16/1/2 13/1/2 14/1/2
f 13/1/2 16/1/2 15/1/2
f 2/2/4 10/3/4 1/4/4
f 10/2/4 2/3/4 9/4/4
f 22/2/8 27/3/8 26/4/8
f 27/2/8 22/3/8 20/4/8
f 22/5/4 28/6/4 21/7/4
f 28/5/4 22/6/4 23/7/4
f 24/5/9 6/6/9 25/7/9
f 6/5/9 24/6/9 26/7/9
f 6/5/9 26/6/9 14/7/9
f 14/5/9 26/6/9 16/7/9
f 25/5/9 8/6/9 27/7/9
f 8/5/9 25/6/9 6/7/9
f 27/5/9 8/6/9 16/7/9
f 27/5/9 16/6/9 26/7/9
f 23/5/9 5/6/9 19/7/9
f 5/5/9 23/6/9 22/7/9
f 5/5/9 22/6/9 13/7/9
f 13/5/9 22/6/9 15/7/9
f 19/5/9 7/6/9 20/7/9
f 7/5/9 19/6/9 5/7/9
f 20/5/9 7/6/9 15/7/9
f 20/5/9 15/6/9 22/7/9
f 19/5/2 28/6/2 23/7/2
f 28/5/2 19/6/2 17/7/2
f 25/5/10 20/6/10 19/7/10
f 20/5/10 25/6/10 27/7/10
usemtl border.002
f 9/8/9 28/9/9 11/10/9
f 28/9/9 9/8/9 2/4/9
f 28/9/9 2/4/9 21/11/9
f 21/11/9 2/4/9 18/3/9
f 17/12/9 11/10/9 28/9/9
f 11/10/9 17/12/9 4/2/9
f 4/2/9 17/12/9 18/3/9
f 4/2/9 18/3/9 2/4/9
f 13/6/9 7/5/9 5/13/9
f 7/5/9 13/6/9 15/7/9
