# Blender 4.3.2
# www.blender.org
mtllib low_buildingB_CyPk.mtl
o low_buildingB
v 0.200000 1.450000 -0.200000
v -0.200000 1.450000 -0.200000
v 0.200000 1.500000 -0.200000
v -0.200000 1.500000 -0.200000
v -0.200000 1.500000 -0.020711
v -0.200000 1.450000 -0.020711
v 0.200000 1.450000 0.200000
v 0.200000 1.500000 0.200000
v 0.250000 1.500000 0.250000
v 0.250000 1.500000 -0.250000
v -0.250000 1.500000 -0.250000
v 0.000000 1.500000 0.250000
v 0.020711 1.500000 0.200000
v -0.250000 1.500000 -0.000000
v 0.175000 1.450000 -0.075000
v 0.175000 1.450000 0.075000
v 0.075000 1.450000 -0.075000
v 0.075000 1.450000 0.075000
v 0.075000 1.450000 0.175000
v 0.175000 1.450000 0.175000
v 0.175000 1.450000 -0.175000
v 0.075000 1.450000 -0.175000
v 0.050000 1.450000 -0.175000
v -0.050000 1.450000 -0.175000
v -0.050000 1.450000 -0.075000
v 0.020711 1.450000 0.200000
v 0.050000 1.450000 -0.075000
v -0.250000 0.500000 -0.000000
v 0.000000 0.500000 0.250000
v 0.050000 1.500000 -0.175000
v 0.050000 1.500000 -0.075000
v -0.050000 1.500000 -0.175000
v -0.050000 1.500000 -0.075000
v 0.200000 0.150000 -0.200000
v 0.200000 0.150000 -0.250000
v -0.200000 0.150000 -0.200000
v -0.200000 0.150000 -0.250000
v -0.200000 -0.000000 -0.200000
v -0.200000 -0.000000 -0.250000
v -0.250000 -0.000000 -0.200000
v -0.250000 -0.000000 -0.250000
v 0.250000 -0.000000 -0.200000
v 0.250000 -0.000000 -0.250000
v 0.200000 -0.000000 -0.200000
v 0.200000 -0.000000 -0.250000
v -0.250000 0.150000 -0.200000
v 0.250000 0.000000 0.250000
v 0.250000 0.000000 0.200000
v 0.200000 0.000000 0.250000
v 0.200000 0.000000 0.200000
v 0.250000 0.150000 -0.200000
v 0.250000 0.150000 0.200000
v 0.200000 0.150000 0.200000
v 0.200000 0.150000 0.250000
v -0.250000 0.500000 0.250000
v -0.250000 0.000000 0.200000
v -0.250000 0.150000 0.200000
v -0.250000 0.000000 0.250000
v -0.200000 0.000000 0.250000
v -0.200000 0.000000 0.200000
v -0.200000 0.150000 0.200000
v -0.200000 0.150000 0.250000
v 0.175000 1.500000 -0.175000
v 0.175000 1.500000 -0.075000
v 0.075000 1.500000 -0.175000
v 0.075000 1.500000 -0.075000
v 0.175000 1.550000 0.175000
v 0.075000 1.550000 0.175000
v 0.112500 1.550000 0.112500
v 0.112500 1.750000 0.112500
v 0.112500 1.550000 0.137500
v 0.112500 1.750000 0.137500
v 0.075000 1.550000 0.075000
v 0.137500 1.750000 0.112500
v 0.137500 1.550000 0.112500
v 0.137500 1.750000 0.137500
v 0.137500 1.550000 0.137500
v 0.175000 1.550000 0.075000
vn -0.0000 -0.0000 1.0000
vn 1.0000 -0.0000 -0.0000
vn -1.0000 -0.0000 -0.0000
vn -0.0000 1.0000 -0.0000
vn -0.0000 -0.0000 -0.0000
vn -0.0000 -0.0000 -1.0000
vn 0.7071 -0.0000 -0.7071
vn -0.7071 -0.0000 0.7071
vn -0.0000 -1.0000 -0.0000
vt 0.000000 0.000000
vt -7.874016 5.905512
vt 7.874016 0.000000
vt 7.874016 5.905512
vt 7.874016 -7.874016
vt -7.874016 7.874016
vt -7.874016 -7.874016
vt -7.874016 0.000000
vt 7.874016 7.874016
s 1
usemtl _defaultMat.006
f 3/1/1 2/1/1 1/1/1
f 2/1/1 3/1/1 4/1/1
f 5/1/2 2/1/2 4/1/2
f 2/1/2 5/1/2 6/1/2
f 7/1/3 3/1/3 1/1/3
f 3/1/3 7/1/3 8/1/3
f 10/1/4 3/1/4 9/1/4
f 3/1/4 10/1/4 11/1/4
f 3/1/4 11/1/4 4/1/4
f 4/1/4 11/1/4 5/1/4
f 8/1/4 9/1/4 3/1/4
f 9/1/4 8/1/4 12/1/4
f 12/1/4 8/1/4 13/1/4
f 12/1/4 13/1/4 5/1/4
f 12/1/4 5/1/4 14/1/4
f 14/1/4 5/1/4 11/1/4
f 17/1/4 16/1/4 15/1/4
f 16/1/4 17/1/4 18/1/4
s 0
f 18/1/5 17/1/5 19/1/5
f 20/1/5 15/1/5 16/1/5
f 20/1/5 21/1/5 15/1/5
s 1
f 20/1/4 7/1/4 21/1/4
f 1/1/4 21/1/4 7/1/4
f 21/1/4 1/1/4 2/1/4
f 21/1/4 2/1/4 22/1/4
f 22/1/4 2/1/4 23/1/4
f 22/1/4 23/1/4 17/1/4
f 23/1/4 2/1/4 24/1/4
f 24/1/4 2/1/4 25/1/4
f 7/1/4 20/1/4 26/1/4
f 26/1/4 20/1/4 19/1/4
f 26/1/4 19/1/4 17/1/4
f 26/1/4 17/1/4 27/1/4
f 27/1/4 17/1/4 23/1/4
f 26/1/4 27/1/4 25/1/4
f 26/1/4 25/1/4 6/1/4
f 6/1/4 25/1/4 2/1/4
f 13/1/6 7/1/6 26/1/6
f 7/1/6 13/1/6 8/1/6
f 13/1/7 6/1/7 5/1/7
f 6/1/7 13/1/7 26/1/7
f 29/1/8 14/1/8 28/1/8
f 14/1/8 29/1/8 12/1/8
f 31/1/2 23/1/2 30/1/2
f 23/1/2 31/1/2 27/1/2
f 32/1/6 23/1/6 24/1/6
f 23/1/6 32/1/6 30/1/6
f 32/1/4 31/1/4 30/1/4
f 31/1/4 32/1/4 33/1/4
f 25/1/3 32/1/3 24/1/3
f 32/1/3 25/1/3 33/1/3
f 31/1/1 25/1/1 27/1/1
f 25/1/1 31/1/1 33/1/1
f 36/1/9 35/1/9 34/1/9
f 35/1/9 36/1/9 37/1/9
f 40/1/9 39/1/9 38/1/9
f 39/1/9 40/1/9 41/1/9
f 44/1/9 43/1/9 42/1/9
f 43/1/9 44/1/9 45/1/9
f 44/1/3 35/1/3 45/1/3
f 35/1/3 44/1/3 34/1/3
f 38/1/1 46/1/1 40/1/1
f 46/1/1 38/1/1 36/1/1
f 49/1/9 48/1/9 47/1/9
f 48/1/9 49/1/9 50/1/9
f 51/1/1 44/1/1 42/1/1
f 44/1/1 51/1/1 34/1/1
f 50/1/6 52/1/6 48/1/6
f 52/1/6 50/1/6 53/1/6
f 49/1/3 53/1/3 50/1/3
f 53/1/3 49/1/3 54/1/3
f 55/1/4 29/1/4 28/1/4
f 58/1/3 57/1/3 56/1/3
f 55/1/3 57/1/3 58/1/3
f 28/1/3 57/1/3 55/1/3
f 57/1/3 28/1/3 46/1/3
f 14/1/3 46/1/3 28/1/3
f 11/1/3 46/1/3 14/1/3
f 11/1/3 40/1/3 46/1/3
f 40/1/3 11/1/3 41/1/3
f 36/2/2 39/3/2 37/4/2
f 39/2/2 36/3/2 38/4/2
f 58/5/9 60/6/9 59/7/9
f 60/5/9 58/6/9 56/7/9
f 62/8/2 60/4/2 61/2/2
f 60/8/2 62/4/2 59/2/2
f 9/3/2 43/2/2 10/8/2
f 43/3/2 9/2/2 51/8/2
f 52/3/2 9/2/2 48/8/2
f 51/3/2 9/2/2 52/8/2
f 48/3/2 9/2/2 47/8/2
f 42/3/2 43/2/2 51/8/2
f 57/3/6 60/2/6 56/8/6
f 60/3/6 57/2/6 61/8/6
f 9/3/1 49/2/1 47/8/1
f 49/3/1 9/2/1 54/8/1
f 29/3/1 9/2/1 12/8/1
f 54/3/1 9/2/1 29/8/1
f 54/3/1 29/2/1 62/8/1
f 62/3/1 29/2/1 55/8/1
f 62/3/1 58/2/1 59/8/1
f 58/3/1 62/2/1 55/8/1
f 53/3/9 51/2/9 52/8/9
f 51/3/9 53/2/9 34/8/9
f 11/3/6 39/2/6 41/8/6
f 39/3/6 11/2/6 37/8/6
f 37/3/6 11/2/6 35/8/6
f 35/3/6 43/2/6 45/8/6
f 43/3/6 35/2/6 10/8/6
f 10/3/6 35/2/6 11/8/6
f 62/3/9 53/2/9 54/8/9
f 53/3/9 62/2/9 61/8/9
f 57/3/9 36/2/9 61/8/9
f 36/3/9 57/2/9 46/8/9
f 65/3/4 64/2/4 63/8/4
f 64/3/4 65/2/4 66/8/4
f 64/3/1 17/2/1 15/8/1
f 17/3/1 64/2/1 66/8/1
f 64/3/2 21/2/2 63/8/2
f 21/3/2 64/2/2 15/8/2
f 65/3/6 21/2/6 22/8/6
f 21/3/6 65/2/6 63/8/6
f 17/3/3 65/2/3 22/8/3
f 65/3/3 17/2/3 66/8/3
f 67/3/1 19/2/1 20/8/1
f 19/3/1 67/2/1 68/8/1
f 71/3/3 70/2/3 69/8/3
f 70/3/3 71/2/3 72/8/3
f 19/3/3 73/2/3 18/8/3
f 73/3/3 19/2/3 68/8/3
f 76/3/2 75/2/2 74/8/2
f 75/3/2 76/2/2 77/8/2
f 73/3/6 16/2/6 18/8/6
f 16/3/6 73/2/6 78/8/6
f 78/3/4 75/2/4 67/8/4
f 75/3/4 78/2/4 73/8/4
f 75/3/4 73/2/4 69/8/4
f 69/3/4 73/2/4 71/8/4
f 67/3/4 77/2/4 68/8/4
f 77/3/4 67/2/4 75/8/4
f 68/3/4 77/2/4 71/8/4
f 68/3/4 71/2/4 73/8/4
f 67/3/2 16/2/2 78/8/2
f 16/3/2 67/2/2 20/8/2
f 76/3/1 71/2/1 77/8/1
f 71/3/1 76/2/1 72/8/1
f 70/3/4 76/2/4 74/8/4
f 76/3/4 70/2/4 72/8/4
f 70/3/6 75/2/6 69/8/6
f 75/3/6 70/2/6 74/8/6
usemtl border.006
f 60/3/3 36/2/3 38/8/3
f 36/2/3 60/3/3 61/4/3
f 60/6/9 44/5/9 50/9/9
f 44/5/9 60/6/9 38/7/9
f 36/4/6 44/8/6 38/3/6
f 44/8/6 36/4/6 34/2/6
f 53/4/1 60/8/1 50/3/1
f 60/8/1 53/4/1 61/2/1
f 53/2/2 44/3/2 34/4/2
f 44/3/2 53/2/2 50/8/2
