# Blender 4.3.2
# www.blender.org
mtllib low_buildingN_CyPk.mtl
o low_buildingN
v 0.175000 2.100000 -0.175000
v 0.175000 2.100000 -0.075000
v 0.075000 2.100000 -0.175000
v 0.075000 2.100000 -0.075000
v 0.175000 2.050000 -0.175000
v 0.175000 2.050000 -0.075000
v 0.075000 2.050000 -0.075000
v 0.075000 2.050000 -0.175000
v -0.250000 1.100000 -0.250000
v -0.250000 1.250000 -0.250000
v -0.250000 1.100000 0.250000
v -0.250000 1.250000 0.250000
v 0.250000 1.350000 0.250000
v -0.250000 1.350000 0.250000
v 0.250000 1.500000 0.250000
v -0.250000 1.500000 0.250000
v 0.250000 1.100000 0.250000
v 0.250000 1.250000 0.250000
v 0.250000 1.100000 -0.250000
v 0.250000 1.250000 -0.250000
v 0.250000 1.350000 -0.250000
v 0.225000 1.350000 0.225000
v -0.225000 1.350000 0.225000
v -0.225000 1.350000 -0.225000
v -0.250000 1.350000 -0.250000
v 0.225000 1.350000 -0.225000
v 0.225000 1.500000 -0.225000
v 0.250000 1.500000 -0.250000
v -0.250000 1.500000 -0.250000
v -0.225000 1.500000 -0.225000
v -0.225000 1.500000 0.225000
v 0.225000 1.500000 0.225000
v 0.225000 1.100000 0.225000
v -0.225000 1.100000 0.225000
v -0.225000 1.100000 -0.225000
v 0.225000 1.100000 -0.225000
v 0.225000 1.250000 -0.225000
v -0.225000 1.250000 -0.225000
v -0.225000 1.250000 0.225000
v 0.225000 1.250000 0.225000
v 0.250000 2.100000 0.250000
v 0.200000 2.100000 -0.200000
v 0.250000 2.100000 -0.250000
v -0.250000 2.100000 -0.250000
v -0.200000 2.100000 -0.200000
v -0.200000 2.100000 0.200000
v -0.250000 2.100000 0.250000
v 0.200000 2.100000 0.200000
v -0.200000 2.050000 0.200000
v 0.200000 2.050000 0.200000
v 0.200000 2.050000 -0.200000
v -0.200000 2.050000 -0.200000
v 0.250000 0.100000 0.250000
v -0.250000 0.100000 0.250000
v 0.250000 0.500000 0.250000
v -0.250000 0.500000 0.250000
v 0.225000 0.500000 -0.225000
v 0.250000 0.500000 -0.250000
v -0.250000 0.500000 -0.250000
v -0.225000 0.500000 -0.225000
v -0.225000 0.500000 0.225000
v 0.225000 0.500000 0.225000
v 0.250000 0.100000 -0.250000
v 0.200000 0.100000 0.200000
v -0.200000 0.100000 0.200000
v -0.200000 0.100000 -0.200000
v -0.250000 0.100000 -0.250000
v 0.200000 0.100000 -0.200000
v -0.200000 -0.000000 -0.200000
v -0.200000 0.000000 0.200000
v 0.200000 0.000000 0.200000
v 0.200000 -0.000000 -0.200000
v 0.250000 1.750000 -0.250000
v 0.250000 1.600000 -0.250000
v 0.250000 1.750000 0.250000
v 0.250000 1.600000 0.250000
v -0.250000 1.600000 -0.250000
v -0.250000 1.750000 -0.250000
v -0.250000 1.600000 0.250000
v -0.250000 1.750000 0.250000
v 0.225000 1.750000 -0.225000
v -0.225000 1.750000 -0.225000
v -0.225000 1.750000 0.225000
v 0.225000 1.750000 0.225000
v 0.250000 1.850000 0.250000
v -0.250000 1.850000 0.250000
v 0.250000 1.850000 -0.250000
v 0.225000 1.600000 0.225000
v -0.225000 1.600000 0.225000
v -0.225000 1.600000 -0.225000
v 0.225000 1.600000 -0.225000
v -0.250000 1.850000 -0.250000
v 0.225000 1.850000 0.225000
v -0.225000 1.850000 0.225000
v -0.225000 1.850000 -0.225000
v 0.225000 1.850000 -0.225000
v -0.075000 2.100000 -0.175000
v -0.075000 2.100000 -0.075000
v -0.175000 2.100000 -0.175000
v -0.175000 2.100000 -0.075000
v -0.175000 2.050000 -0.175000
v -0.075000 2.050000 -0.175000
v -0.175000 2.050000 -0.075000
v -0.075000 2.050000 -0.075000
v -0.250000 0.600000 -0.250000
v -0.250000 0.750000 -0.250000
v -0.250000 0.600000 0.250000
v -0.250000 0.750000 0.250000
v 0.250000 1.000000 0.250000
v 0.225000 1.000000 -0.225000
v 0.250000 1.000000 -0.250000
v -0.250000 1.000000 -0.250000
v -0.225000 1.000000 -0.225000
v -0.225000 1.000000 0.225000
v -0.250000 1.000000 0.250000
v 0.225000 1.000000 0.225000
v 0.250000 0.850000 -0.250000
v 0.250000 0.850000 0.250000
v 0.250000 0.600000 0.250000
v 0.250000 0.750000 0.250000
v 0.225000 0.750000 -0.225000
v 0.250000 0.750000 -0.250000
v -0.225000 0.750000 -0.225000
v -0.225000 0.750000 0.225000
v 0.225000 0.750000 0.225000
v 0.250000 0.600000 -0.250000
v 0.225000 0.600000 0.225000
v -0.225000 0.600000 0.225000
v -0.225000 0.600000 -0.225000
v 0.225000 0.600000 -0.225000
v 0.225000 0.850000 0.225000
v -0.250000 0.850000 0.250000
v -0.225000 0.850000 0.225000
v -0.225000 0.850000 -0.225000
v -0.250000 0.850000 -0.250000
v 0.225000 0.850000 -0.225000
vn -0.0000 1.0000 -0.0000
vn 1.0000 -0.0000 -0.0000
vn -0.0000 -0.0000 1.0000
vn -0.0000 -0.0000 -1.0000
vn -1.0000 -0.0000 -0.0000
vn -0.0000 -1.0000 -0.0000
vt 0.000000 0.000000
vt -8.858268 39.370079
vt 8.858268 43.307091
vt -8.858268 43.307091
vt -8.858268 49.212601
vt 8.858268 53.149601
vt -8.858268 53.149601
vt 8.858268 49.212601
vt 8.858268 39.370079
vt 7.874016 7.874016
vt 6.889764 -2.952756
vt 7.874016 -7.874016
vt -8.858268 68.897636
vt 8.858268 72.834648
vt -8.858268 72.834648
vt 8.858268 68.897636
vt 8.858268 59.055119
vt -8.858268 62.992130
vt -8.858268 59.055119
vt 8.858268 62.992130
vt -8.858268 29.527559
vt 8.858268 33.464569
vt -8.858268 33.464569
vt -8.858268 19.685040
vt 8.858268 23.622049
vt -8.858268 23.622049
vt 8.858268 29.527559
vt 8.858268 19.685040
vt -7.874016 -7.874016
vt -6.889764 -6.889764
vt -7.874016 7.874016
vt -2.952756 -6.889764
vt 2.952756 -6.889764
vt -2.952756 -2.952756
vt 6.889764 -6.889764
vt -6.889764 -2.952756
vt 2.952756 -2.952756
s 1
usemtl _defaultMat.008
f 3/1/1 2/1/1 1/1/1
f 2/1/1 3/1/1 4/1/1
f 2/1/2 5/1/2 1/1/2
f 5/1/2 2/1/2 6/1/2
f 2/1/3 7/1/3 6/1/3
f 7/1/3 2/1/3 4/1/3
f 3/1/4 5/1/4 8/1/4
f 5/1/4 3/1/4 1/1/4
f 7/1/5 3/1/5 8/1/5
f 3/1/5 7/1/5 4/1/5
f 11/2/5 10/3/5 9/4/5
f 10/2/5 11/3/5 12/4/5
f 15/5/3 14/6/3 13/7/3
f 14/5/3 15/6/3 16/7/3
f 18/5/3 11/6/3 17/7/3
f 11/5/3 18/6/3 12/7/3
f 10/7/4 19/8/4 9/6/4
f 19/7/4 10/8/4 20/6/4
f 18/4/2 19/9/2 20/3/2
f 19/4/2 18/9/2 17/3/2
f 13/2/6 22/3/6 21/4/6
f 22/2/6 13/3/6 14/4/6
f 22/2/6 14/3/6 23/4/6
f 23/2/6 14/3/6 24/4/6
f 21/2/6 26/3/6 25/4/6
f 26/2/6 21/3/6 22/4/6
f 25/2/6 26/3/6 24/4/6
f 25/2/6 24/3/6 14/4/6
f 28/2/1 27/3/1 15/4/1
f 27/2/1 28/3/1 29/4/1
f 27/2/1 29/3/1 30/4/1
f 30/2/1 29/3/1 31/4/1
f 15/2/1 32/3/1 16/4/1
f 32/2/1 15/3/1 27/4/1
f 16/2/1 32/3/1 31/4/1
f 16/2/1 31/3/1 29/4/1
f 29/8/4 21/7/4 25/5/4
f 21/8/4 29/7/4 28/5/4
f 14/8/5 29/7/5 25/5/5
f 29/8/5 14/7/5 16/5/5
f 15/8/2 21/7/2 28/5/2
f 21/8/2 15/7/2 13/5/2
f 17/5/6 33/6/6 19/7/6
f 33/5/6 17/6/6 11/7/6
f 33/5/6 11/6/6 34/7/6
f 34/5/6 11/6/6 35/7/6
f 19/5/6 36/6/6 9/7/6
f 36/5/6 19/6/6 33/7/6
f 9/5/6 36/6/6 35/7/6
f 9/5/6 35/6/6 11/7/6
f 20/5/1 37/6/1 18/7/1
f 37/5/1 20/6/1 10/7/1
f 37/5/1 10/6/1 38/7/1
f 38/5/1 10/6/1 39/7/1
f 18/5/1 40/6/1 12/7/1
f 40/5/1 18/6/1 37/7/1
f 12/5/1 40/6/1 39/7/1
f 12/5/1 39/6/1 10/7/1
f 43/5/1 42/6/1 41/7/1
f 42/5/1 43/6/1 44/7/1
f 42/5/1 44/6/1 45/7/1
f 45/5/1 44/6/1 46/7/1
f 41/5/1 48/6/1 47/7/1
f 48/5/1 41/6/1 42/7/1
f 47/5/1 48/6/1 46/7/1
f 47/5/1 46/6/1 44/7/1
f 46/5/4 50/6/4 49/7/4
f 50/5/4 46/6/4 48/7/4
f 42/5/3 52/6/3 51/7/3
f 52/5/3 42/6/3 45/7/3
f 50/5/5 42/6/5 51/7/5
f 42/5/5 50/6/5 48/7/5
f 46/10/2 52/11/2 45/12/2
f 52/10/2 46/11/2 49/12/2
f 55/10/3 54/11/3 53/12/3
f 54/10/3 55/11/3 56/12/3
f 58/10/1 57/11/1 55/12/1
f 57/10/1 58/11/1 59/12/1
f 57/10/1 59/11/1 60/12/1
f 60/10/1 59/11/1 61/12/1
f 55/10/1 62/11/1 56/12/1
f 62/10/1 55/11/1 57/12/1
f 56/10/1 62/11/1 61/12/1
f 56/10/1 61/11/1 59/12/1
f 53/10/6 64/11/6 63/12/6
f 64/10/6 53/11/6 54/12/6
f 64/10/6 54/11/6 65/12/6
f 65/10/6 54/11/6 66/12/6
f 63/10/6 68/11/6 67/12/6
f 68/10/6 63/11/6 64/12/6
f 67/10/6 68/11/6 66/12/6
f 67/10/6 66/11/6 54/12/6
f 70/10/5 66/11/5 69/12/5
f 66/10/5 70/11/5 65/12/5
f 70/10/6 72/11/6 71/12/6
f 72/10/6 70/11/6 69/12/6
f 54/10/5 59/11/5 67/12/5
f 59/10/5 54/11/5 56/12/5
f 64/10/3 70/11/3 71/12/3
f 70/10/3 64/11/3 65/12/3
f 55/10/2 63/11/2 58/12/2
f 63/10/2 55/11/2 53/12/2
f 66/10/4 72/11/4 69/12/4
f 72/10/4 66/11/4 68/12/4
f 59/10/4 63/11/4 67/12/4
f 63/10/4 59/11/4 58/12/4
f 64/10/2 72/11/2 68/12/2
f 72/10/2 64/11/2 71/12/2
f 75/13/2 74/14/2 73/15/2
f 74/13/2 75/14/2 76/15/2
f 79/13/5 78/14/5 77/15/5
f 78/13/5 79/14/5 80/15/5
f 73/13/1 81/14/1 75/15/1
f 81/13/1 73/14/1 78/15/1
f 81/13/1 78/14/1 82/15/1
f 82/13/1 78/14/1 83/15/1
f 75/13/1 84/14/1 80/15/1
f 84/13/1 75/14/1 81/15/1
f 80/13/1 84/14/1 83/15/1
f 80/13/1 83/14/1 78/15/1
f 41/15/3 86/16/3 85/14/3
f 86/15/3 41/16/3 47/14/3
f 75/17/3 79/18/3 76/19/3
f 79/17/3 75/18/3 80/19/3
f 41/17/2 87/18/2 43/19/2
f 87/17/2 41/18/2 85/19/2
f 78/17/4 74/18/4 77/19/4
f 74/17/4 78/18/4 73/19/4
f 76/17/6 88/18/6 74/19/6
f 88/17/6 76/18/6 79/19/6
f 88/17/6 79/18/6 89/19/6
f 89/17/6 79/18/6 90/19/6
f 74/17/6 91/18/6 77/19/6
f 91/17/6 74/18/6 88/19/6
f 77/17/6 91/18/6 90/19/6
f 77/17/6 90/18/6 79/19/6
f 44/17/4 87/18/4 92/19/4
f 87/17/4 44/18/4 43/19/4
f 86/18/5 44/17/5 92/20/5
f 44/18/5 86/17/5 47/20/5
f 85/18/6 93/17/6 87/20/6
f 93/18/6 85/17/6 86/20/6
f 93/18/6 86/17/6 94/20/6
f 94/18/6 86/17/6 95/20/6
f 87/18/6 96/17/6 92/20/6
f 96/18/6 87/17/6 93/20/6
f 92/18/6 96/17/6 95/20/6
f 92/18/6 95/17/6 86/20/6
f 99/19/1 98/20/1 97/18/1
f 98/19/1 99/20/1 100/18/1
f 99/19/4 102/20/4 101/18/4
f 102/19/4 99/20/4 97/18/4
f 103/19/5 99/20/5 101/18/5
f 99/19/5 103/20/5 100/18/5
f 98/19/3 103/20/3 104/18/3
f 103/19/3 98/20/3 100/18/3
f 98/19/2 102/20/2 97/18/2
f 102/19/2 98/20/2 104/18/2
f 107/21/5 106/22/5 105/23/5
f 106/21/5 107/22/5 108/23/5
f 111/24/1 110/25/1 109/26/1
f 110/24/1 111/25/1 112/26/1
f 110/24/1 112/25/1 113/26/1
f 113/24/1 112/25/1 114/26/1
f 109/24/1 116/25/1 115/26/1
f 116/24/1 109/25/1 110/26/1
f 115/24/1 116/25/1 114/26/1
f 115/24/1 114/25/1 112/26/1
f 109/23/2 117/27/2 111/22/2
f 117/23/2 109/27/2 118/22/2
f 120/23/3 107/27/3 119/22/3
f 107/23/3 120/27/3 108/22/3
f 122/23/1 121/27/1 120/22/1
f 121/23/1 122/27/1 106/22/1
f 121/23/1 106/27/1 123/22/1
f 123/23/1 106/27/1 124/22/1
f 120/23/1 125/27/1 108/22/1
f 125/23/1 120/27/1 121/22/1
f 108/23/1 125/27/1 124/22/1
f 108/23/1 124/27/1 106/22/1
f 120/23/2 126/27/2 122/22/2
f 126/23/2 120/27/2 119/22/2
f 119/23/6 127/27/6 126/22/6
f 127/23/6 119/27/6 107/22/6
f 127/23/6 107/27/6 128/22/6
f 128/23/6 107/27/6 129/22/6
f 126/23/6 130/27/6 105/22/6
f 130/23/6 126/27/6 127/22/6
f 105/23/6 130/27/6 129/22/6
f 105/23/6 129/27/6 107/22/6
f 106/23/4 126/27/4 105/22/4
f 126/23/4 106/27/4 122/22/4
f 118/28/6 131/26/6 117/24/6
f 131/28/6 118/26/6 132/24/6
f 131/28/6 132/26/6 133/24/6
f 133/28/6 132/26/6 134/24/6
f 117/28/6 136/26/6 135/24/6
f 136/28/6 117/26/6 131/24/6
f 135/28/6 136/26/6 134/24/6
f 135/28/6 134/26/6 132/24/6
f 112/28/4 117/26/4 135/24/4
f 117/28/4 112/26/4 111/24/4
f 132/28/5 112/26/5 135/24/5
f 112/28/5 132/26/5 115/24/5
f 109/28/3 132/26/3 118/24/3
f 132/28/3 109/26/3 115/24/3
usemtl border.008
f 33/3/3 114/2/3 116/9/3
f 114/2/3 33/3/3 34/4/3
f 22/6/3 39/5/3 40/8/3
f 39/5/3 22/6/3 23/7/3
f 39/8/5 24/7/5 38/5/5
f 24/7/5 39/8/5 23/6/5
f 33/4/2 110/9/2 36/3/2
f 110/9/2 33/4/2 116/2/2
f 114/9/5 35/4/5 113/2/5
f 35/4/5 114/9/5 34/3/5
f 35/3/4 110/2/4 113/9/4
f 110/2/4 35/3/4 36/4/4
f 22/7/2 37/8/2 26/6/2
f 37/8/2 22/7/2 40/5/2
f 24/6/4 37/5/4 38/8/4
f 37/5/4 24/6/4 26/7/4
f 51/29/1 5/30/1 50/31/1
f 5/30/1 51/29/1 52/12/1
f 5/30/1 52/12/1 8/32/1
f 8/32/1 52/12/1 102/33/1
f 8/32/1 102/33/1 7/34/1
f 102/33/1 52/12/1 101/35/1
f 101/35/1 52/12/1 103/11/1
f 6/36/1 50/31/1 5/30/1
f 50/31/1 6/36/1 49/10/1
f 49/10/1 6/36/1 7/34/1
f 49/10/1 103/11/1 52/12/1
f 49/10/1 7/34/1 104/37/1
f 104/37/1 7/34/1 102/33/1
f 49/10/1 104/37/1 103/11/1
f 93/15/2 81/16/2 96/14/2
f 81/16/2 93/15/2 84/13/2
f 93/14/3 83/13/3 84/16/3
f 83/13/3 93/14/3 94/15/3
f 95/14/4 81/13/4 82/16/4
f 81/13/4 95/14/4 96/15/4
f 83/16/5 95/15/5 82/13/5
f 95/15/5 83/16/5 94/14/5
f 88/18/2 27/17/2 91/20/2
f 27/17/2 88/18/2 32/19/2
f 31/17/5 90/18/5 30/19/5
f 90/18/5 31/17/5 89/20/5
f 88/20/3 31/19/3 32/17/3
f 31/19/3 88/20/3 89/18/3
f 90/20/4 27/19/4 30/17/4
f 27/19/4 90/20/4 91/18/4
f 134/22/4 121/21/4 123/27/4
f 121/21/4 134/22/4 136/23/4
f 129/25/4 57/24/4 60/28/4
f 57/24/4 129/25/4 130/26/4
f 131/22/3 124/21/3 125/27/3
f 124/21/3 131/22/3 133/23/3
f 131/23/2 121/27/2 136/22/2
f 121/27/2 131/23/2 125/21/2
f 124/27/5 134/23/5 123/21/5
f 134/23/5 124/27/5 133/22/5
f 127/26/2 57/28/2 130/25/2
f 57/28/2 127/26/2 62/24/2
f 127/25/3 61/24/3 62/28/3
f 61/24/3 127/25/3 128/26/3
f 61/28/5 129/26/5 60/24/5
f 129/26/5 61/28/5 128/25/5
