# Blender 4.3.2
# www.blender.org
mtllib low_buildingI_CyPk.mtl
o low_buildingI
v 0.250000 1.000000 -0.250000
v 0.250000 -0.000000 -0.250000
v 0.250000 1.000000 0.250000
v 0.250000 0.000000 0.250000
v 0.200000 1.000000 -0.200000
v -0.250000 1.000000 -0.250000
v -0.200000 1.000000 -0.200000
v -0.200000 1.000000 0.200000
v 0.200000 1.000000 0.200000
v -0.250000 1.000000 0.250000
v -0.250000 0.000000 0.250000
v -0.250000 -0.000000 -0.250000
v 0.250000 1.500000 -0.250000
v 0.250000 1.050000 -0.250000
v 0.250000 1.500000 0.250000
v 0.250000 1.050000 0.250000
v 0.200000 1.500000 -0.200000
v -0.250000 1.500000 -0.250000
v -0.200000 1.500000 -0.200000
v -0.200000 1.500000 0.200000
v -0.250000 1.500000 0.250000
v 0.200000 1.500000 0.200000
v -0.250000 1.050000 -0.250000
v -0.250000 1.050000 0.250000
v 0.200000 1.450000 -0.200000
v 0.200000 1.450000 0.200000
v -0.200000 1.450000 0.200000
v -0.200000 1.450000 -0.200000
v 0.200000 1.050000 0.200000
v -0.200000 1.050000 0.200000
v -0.200000 1.050000 -0.200000
v 0.200000 1.050000 -0.200000
v 0.062500 1.600000 -0.087500
v 0.087500 1.600000 -0.087500
v 0.062500 1.750000 -0.087500
v 0.087500 1.750000 -0.087500
v 0.150000 1.600000 -0.150000
v 0.150000 1.450000 -0.150000
v 0.150000 1.600000 -0.000000
v 0.150000 1.450000 -0.000000
v 0.087500 1.750000 -0.062500
v 0.062500 1.750000 -0.062500
v 0.000000 1.450000 -0.150000
v 0.000000 1.600000 -0.150000
v 0.087500 1.600000 -0.062500
v 0.062500 1.600000 -0.062500
v 0.000000 1.600000 -0.000000
v 0.000000 1.450000 -0.000000
vn 1.0000 -0.0000 -0.0000
vn -0.0000 1.0000 -0.0000
vn -0.0000 -0.0000 1.0000
vn -1.0000 -0.0000 -0.0000
vn -0.0000 -1.0000 -0.0000
vn -0.0000 -0.0000 -1.0000
vt 0.000000 0.000000
vt -7.874016 41.338581
vt 7.874016 39.370079
vt 7.874016 41.338581
vt 7.874016 7.874016
vt 0.000000 -0.000000
vt 7.874016 -7.874016
vt -7.874016 39.370079
vt -7.874016 -7.874016
vt -5.905512 -5.905512
vt -7.874016 7.874016
vt 0.000000 -5.905512
vt -5.905512 -0.000000
s 1
usemtl _defaultMat.001
f 3/1/1 2/1/1 1/1/1
f 2/1/1 3/1/1 4/1/1
f 1/1/2 5/1/2 3/1/2
f 5/1/2 1/1/2 6/1/2
f 5/1/2 6/1/2 7/1/2
f 7/1/2 6/1/2 8/1/2
f 9/1/2 3/1/2 5/1/2
f 3/1/2 9/1/2 10/1/2
f 10/1/2 9/1/2 8/1/2
f 10/1/2 8/1/2 6/1/2
f 3/1/3 11/1/3 4/1/3
f 11/1/3 3/1/3 10/1/3
f 11/1/4 6/1/4 12/1/4
f 6/1/4 11/1/4 10/1/4
f 11/1/5 2/1/5 4/1/5
f 2/1/5 11/1/5 12/1/5
f 6/1/6 2/1/6 12/1/6
f 2/1/6 6/1/6 1/1/6
f 15/2/1 14/3/1 13/4/1
f 14/2/1 15/3/1 16/4/1
f 13/2/2 17/3/2 15/4/2
f 17/2/2 13/3/2 18/4/2
f 17/2/2 18/3/2 19/4/2
f 19/2/2 18/3/2 20/4/2
f 15/2/2 22/3/2 21/4/2
f 22/2/2 15/3/2 17/4/2
f 21/2/2 22/3/2 20/4/2
f 21/2/2 20/3/2 18/4/2
f 24/2/4 18/3/4 23/4/4
f 18/2/4 24/3/4 21/4/4
f 15/2/3 24/3/3 16/4/3
f 24/2/3 15/3/3 21/4/3
f 26/5/4 17/6/4 25/7/4
f 17/5/4 26/6/4 22/7/4
f 20/8/6 26/4/6 27/2/6
f 26/8/6 20/4/6 22/2/6
f 20/8/1 28/4/1 19/2/1
f 28/8/1 20/4/1 27/2/1
f 18/8/6 14/4/6 23/2/6
f 14/8/6 18/4/6 13/2/6
f 16/8/5 29/4/5 14/2/5
f 29/8/5 16/4/5 24/2/5
f 29/8/5 24/4/5 30/2/5
f 30/8/5 24/4/5 31/2/5
f 14/8/5 32/4/5 23/2/5
f 32/8/5 14/4/5 29/2/5
f 23/8/5 32/4/5 31/2/5
f 23/8/5 31/4/5 24/2/5
f 17/8/3 28/4/3 25/2/3
f 28/8/3 17/4/3 19/2/3
f 35/8/6 34/4/6 33/2/6
f 34/8/6 35/4/6 36/2/6
f 39/8/1 38/4/1 37/2/1
f 38/8/1 39/4/1 40/2/1
f 35/8/2 41/4/2 36/2/2
f 41/8/2 35/4/2 42/2/2
f 44/8/6 38/4/6 43/2/6
f 38/8/6 44/4/6 37/2/6
f 41/8/3 46/4/3 45/2/3
f 46/8/3 41/4/3 42/2/3
f 37/8/2 34/4/2 39/2/2
f 34/8/2 37/4/2 44/2/2
f 34/8/2 44/4/2 33/2/2
f 33/8/2 44/4/2 46/2/2
f 39/8/2 45/4/2 47/2/2
f 45/8/2 39/4/2 34/2/2
f 47/8/2 45/4/2 46/2/2
f 47/8/2 46/4/2 44/2/2
f 46/8/4 35/4/4 33/2/4
f 35/8/4 46/4/4 42/2/4
f 41/8/1 34/4/1 36/2/1
f 34/8/1 41/4/1 45/2/1
f 39/8/3 48/4/3 40/2/3
f 48/8/3 39/4/3 47/2/3
f 48/8/4 44/4/4 43/2/4
f 44/8/4 48/4/4 47/2/4
usemtl border.001
f 8/3/4 31/2/4 7/8/4
f 31/2/4 8/3/4 30/4/4
f 29/2/1 5/3/1 32/4/1
f 5/3/1 29/2/1 9/8/1
f 29/4/3 8/8/3 9/3/3
f 8/8/3 29/4/3 30/2/3
f 25/9/2 38/10/2 26/11/2
f 38/10/2 25/9/2 28/7/2
f 38/10/2 28/7/2 43/12/2
f 43/12/2 28/7/2 48/6/2
f 40/13/2 26/11/2 38/10/2
f 26/11/2 40/13/2 27/5/2
f 27/5/2 40/13/2 48/6/2
f 27/5/2 48/6/2 28/7/2
f 31/4/6 5/8/6 7/3/6
f 5/8/6 31/4/6 32/2/6
