# Blender 4.3.2
# www.blender.org
mtllib low_buildingE_CyPk.mtl
o low_buildingE
v 0.250000 -0.000000 -0.050000
v 0.200000 -0.000000 -0.050000
v 0.250000 2.000000 -0.050000
v 0.200000 1.950000 -0.050000
v 0.050000 1.950000 -0.050000
v 0.050000 2.000000 -0.050000
v -0.050000 0.000000 0.250000
v -0.250000 0.000000 0.250000
v -0.050000 2.000000 0.250000
v -0.250000 2.000000 0.250000
v 0.050000 -0.000000 -0.250000
v 0.050000 2.000000 -0.250000
v 0.050000 -0.000000 -0.200000
v 0.050000 1.950000 -0.200000
v 0.250000 0.000000 0.250000
v 0.050000 0.000000 0.250000
v 0.250000 2.000000 0.250000
v 0.050000 2.000000 0.250000
v -0.050000 -0.000000 -0.250000
v -0.050000 1.950000 -0.200000
v -0.050000 2.000000 -0.250000
v -0.050000 2.000000 -0.050000
v -0.050000 1.950000 -0.050000
v -0.050000 -0.000000 -0.200000
v 0.250000 -0.000000 -0.250000
v 0.250000 2.000000 -0.250000
v 0.050000 0.000000 0.200000
v 0.050000 1.950000 0.200000
v 0.050000 1.950000 0.050000
v 0.050000 2.000000 0.050000
v -0.250000 0.000000 0.050000
v -0.200000 0.000000 0.050000
v -0.250000 2.000000 0.050000
v -0.200000 1.950000 0.050000
v -0.050000 2.000000 0.050000
v -0.050000 1.950000 0.050000
v -0.200000 1.950000 -0.050000
v -0.200000 -0.000000 -0.050000
v -0.250000 -0.000000 -0.050000
v -0.250000 2.000000 -0.050000
v -0.050000 1.950000 0.200000
v -0.050000 0.000000 0.200000
v -0.250000 2.000000 -0.250000
v 0.250000 2.000000 0.050000
v 0.250000 0.000000 0.050000
v 0.200000 0.000000 0.050000
v -0.250000 -0.000000 -0.250000
v 0.200000 1.950000 0.050000
vn -0.0000 -0.0000 1.0000
vn -1.0000 -0.0000 -0.0000
vn 1.0000 -0.0000 -0.0000
vn -0.0000 -0.0000 -1.0000
vn -0.0000 1.0000 -0.0000
vn -0.0000 -1.0000 -0.0000
vt 0.000000 0.000000
vt -1.968504 0.000000
vt 1.968504 76.771652
vt -1.968504 76.771652
vt -1.968504 0.000000
vt 1.968504 0.000000
vt 1.968504 0.000000
vt -7.874016 1.968504
vt -1.968504 -1.968504
vt -1.968504 1.968504
vt 7.874016 -1.968504
vt 1.968504 1.968504
vt 1.968504 -1.968504
vt 7.874016 1.968504
vt 1.968504 7.874016
vt 1.968504 -7.874016
vt -1.968504 7.874016
vt -1.968504 -7.874016
vt -7.874016 -1.968504
s 1
usemtl _defaultMat.013
f 3/1/1 2/1/1 1/1/1
f 2/1/1 3/1/1 4/1/1
f 4/1/1 3/1/1 5/1/1
f 5/1/1 3/1/1 6/1/1
f 9/1/1 8/1/1 7/1/1
f 8/1/1 9/1/1 10/1/1
f 13/1/2 12/1/2 11/1/2
f 12/1/2 13/1/2 14/1/2
f 12/1/2 14/1/2 6/1/2
f 6/1/2 14/1/2 5/1/2
f 17/1/1 16/1/1 15/1/1
f 16/1/1 17/1/1 18/1/1
f 21/2/3 20/3/3 19/4/3
f 20/2/3 21/3/3 22/4/3
f 20/2/3 22/3/3 23/4/3
f 24/2/3 19/3/3 20/4/3
f 12/2/4 25/3/4 11/4/4
f 25/2/4 12/3/4 26/4/4
f 16/5/2 28/3/2 27/4/2
f 18/5/2 28/3/2 16/4/2
f 28/5/2 30/3/2 29/4/2
f 30/5/2 28/3/2 18/4/2
f 33/4/4 32/6/4 31/3/4
f 32/4/4 33/6/4 34/3/4
f 36/4/4 33/6/4 35/3/4
f 34/4/4 33/6/4 36/3/4
f 22/7/1 37/4/1 23/2/1
f 37/7/1 39/4/1 38/2/1
f 39/7/1 37/4/1 40/2/1
f 40/7/1 37/4/1 22/2/1
f 8/7/2 33/4/2 31/2/2
f 33/7/2 8/4/2 10/2/2
f 3/7/3 25/4/3 26/2/3
f 25/7/3 3/4/3 1/2/3
f 9/7/3 36/4/3 35/2/3
f 36/7/3 9/4/3 41/2/3
f 42/7/3 9/4/3 7/2/3
f 41/7/3 9/4/3 42/2/3
f 43/7/5 22/4/5 21/2/5
f 22/7/5 43/4/5 40/2/5
f 30/7/5 17/4/5 44/2/5
f 17/7/5 30/4/5 18/2/5
f 33/7/5 9/4/5 35/2/5
f 9/7/5 33/4/5 10/2/5
f 12/7/5 3/4/5 26/2/5
f 3/7/5 12/4/5 6/2/5
f 2/8/6 25/9/6 1/10/6
f 25/8/6 2/9/6 11/10/6
f 16/8/6 45/9/6 15/10/6
f 45/8/6 16/9/6 46/10/6
f 46/8/6 16/9/6 2/10/6
f 2/8/6 16/9/6 13/10/6
f 2/8/6 13/9/6 11/10/6
s 0
f 13/8/6 16/9/6 27/10/6
s 1
f 27/8/6 24/9/6 13/10/6
f 24/8/6 27/9/6 42/10/6
f 8/8/6 32/9/6 7/10/6
f 32/8/6 8/9/6 31/10/6
f 24/8/6 47/9/6 19/10/6
f 47/8/6 24/9/6 42/10/6
f 47/8/6 42/9/6 7/10/6
f 47/8/6 7/9/6 38/10/6
f 38/8/6 7/9/6 32/10/6
f 47/8/6 38/9/6 39/10/6
f 39/8/2 43/9/2 47/10/2
f 43/8/2 39/9/2 40/10/2
f 47/8/4 21/9/4 19/10/4
f 21/8/4 47/9/4 43/10/4
f 17/8/3 45/9/3 44/10/3
f 45/8/3 17/9/3 15/10/3
f 30/8/4 48/9/4 29/10/4
f 48/8/4 45/9/4 46/10/4
f 45/8/4 48/9/4 44/10/4
f 44/8/4 48/9/4 30/10/4
usemtl border.013
f 20/3/4 13/2/4 24/7/4
f 13/2/4 20/3/4 14/4/4
f 28/3/1 42/5/1 27/6/1
f 42/5/1 28/3/1 41/4/1
f 32/6/2 37/4/2 38/5/2
f 37/4/2 32/6/2 34/3/2
f 48/4/3 2/7/3 4/3/3
f 2/7/3 48/4/3 46/2/3
f 37/11/5 36/12/5 23/13/5
f 36/12/5 37/11/5 34/14/5
s 0
f 41/15/5 23/13/5 36/12/5
f 41/15/5 20/16/5 23/13/5
s 1
f 28/17/5 20/16/5 41/15/5
f 29/10/5 20/16/5 28/17/5
f 5/9/5 20/16/5 29/10/5
f 20/16/5 5/9/5 14/18/5
f 48/8/5 5/9/5 29/10/5
f 5/9/5 48/8/5 4/19/5
